<svg width="359" height="302" viewBox="0 0 359 302" fill="none" xmlns="http://www.w3.org/2000/svg">
<g filter="url(#filter0_d_1297_2211)">
<path fill-rule="evenodd" clip-rule="evenodd" d="M160.433 143.2C135.974 138.681 112.432 154.645 107.85 178.857C103.268 203.068 119.382 226.358 143.84 230.876L218.456 244.66C238.036 248.277 249.316 238.632 249.316 238.632L270.183 183.384C264.034 171.565 249.277 159.612 235.049 156.984L160.433 143.2Z" fill="#6C00AB"/>
<path d="M196.097 190.194C193.71 189.51 192.243 187.115 192.722 184.682L214.631 73.3705C215.142 70.7758 217.667 69.0909 220.263 69.6131L287.698 83.1771C300.506 85.7532 309.756 90.8051 315.448 98.3326C321.141 105.86 322.857 115.236 320.599 126.46C319.312 132.856 317.045 138.036 313.8 142C312.606 143.53 311.324 144.902 309.954 146.117C307.136 148.615 306.694 153.634 309.168 156.474C310.781 158.325 312.109 160.315 313.154 162.443C315.398 166.833 315.758 172.813 314.235 180.383C311.845 192.26 306.19 200.764 297.271 205.896C288.351 211.027 277.095 212.226 263.503 209.492L196.097 190.194ZM246.562 121.365C246.042 123.95 247.719 126.468 250.307 126.988L266.4 130.225C273.98 131.75 278.453 129.119 279.819 122.332C280.476 119.069 279.995 116.392 278.376 114.301C276.914 112.106 274.092 110.588 269.909 109.746L254.404 106.628C251.816 106.107 249.296 107.78 248.776 110.365L246.562 121.365ZM236.91 169.33C236.39 171.915 238.066 174.432 240.655 174.953L257.532 178.348C265.504 179.951 270.226 177.098 271.697 169.79C273.063 163.003 269.629 158.781 261.395 157.125L244.91 153.809C242.321 153.289 239.801 154.962 239.281 157.547L236.91 169.33Z" fill="black"/>
<path d="M196.097 190.194C193.71 189.51 192.243 187.115 192.722 184.682L214.631 73.3705C215.142 70.7758 217.667 69.0909 220.263 69.6131L287.698 83.1771C300.506 85.7532 309.756 90.8051 315.448 98.3326C321.141 105.86 322.857 115.236 320.599 126.46C319.312 132.856 317.045 138.036 313.8 142C312.606 143.53 311.324 144.902 309.954 146.117C307.136 148.615 306.694 153.634 309.168 156.474C310.781 158.325 312.109 160.315 313.154 162.443C315.398 166.833 315.758 172.813 314.235 180.383C311.845 192.26 306.19 200.764 297.271 205.896C288.351 211.027 277.095 212.226 263.503 209.492L196.097 190.194ZM246.562 121.365C246.042 123.95 247.719 126.468 250.307 126.988L266.4 130.225C273.98 131.75 278.453 129.119 279.819 122.332C280.476 119.069 279.995 116.392 278.376 114.301C276.914 112.106 274.092 110.588 269.909 109.746L254.404 106.628C251.816 106.107 249.296 107.78 248.776 110.365L246.562 121.365ZM236.91 169.33C236.39 171.915 238.066 174.432 240.655 174.953L257.532 178.348C265.504 179.951 270.226 177.098 271.697 169.79C273.063 163.003 269.629 158.781 261.395 157.125L244.91 153.809C242.321 153.289 239.801 154.962 239.281 157.547L236.91 169.33Z" fill="#FFF7E5"/>
<path d="M250.307 126.988L266.4 130.225C273.98 131.75 278.453 129.119 279.819 122.332C280.476 119.069 279.995 116.392 278.376 114.301C276.914 112.106 274.092 110.588 269.909 109.746L254.404 106.628C251.816 106.107 249.296 107.78 248.776 110.365L246.562 121.365C246.042 123.95 247.719 126.468 250.307 126.988Z" fill="black"/>
<path d="M250.307 126.988L266.4 130.225C273.98 131.75 278.453 129.119 279.819 122.332C280.476 119.069 279.995 116.392 278.376 114.301C276.914 112.106 274.092 110.588 269.909 109.746L254.404 106.628C251.816 106.107 249.296 107.78 248.776 110.365L246.562 121.365C246.042 123.95 247.719 126.468 250.307 126.988Z" fill="#6C00AB"/>
<path d="M240.655 174.953L257.532 178.348C265.504 179.951 270.226 177.098 271.697 169.79C273.063 163.003 269.629 158.781 261.395 157.125L244.91 153.809C242.321 153.289 239.801 154.962 239.281 157.547L236.91 169.33C236.39 171.915 238.066 174.432 240.655 174.953Z" fill="black"/>
<path d="M240.655 174.953L257.532 178.348C265.504 179.951 270.226 177.098 271.697 169.79C273.063 163.003 269.629 158.781 261.395 157.125L244.91 153.809C242.321 153.289 239.801 154.962 239.281 157.547L236.91 169.33C236.39 171.915 238.066 174.432 240.655 174.953Z" fill="#6C00AB"/>
<path d="M172.892 184.011C175.483 184.403 177.906 182.638 178.324 180.055L196.209 69.6946C196.663 66.8979 194.592 64.3237 191.759 64.1632L160.538 62.3942C158.065 62.2541 155.895 64.0237 155.539 66.4715L150.535 100.825C150.162 103.388 147.811 105.185 145.236 104.876L97.596 99.1526C95.8629 98.9444 94.3808 97.8093 93.7297 96.1916L79.2097 60.1176C78.5033 58.3625 76.8263 57.189 74.9337 57.1252L42.2857 56.0248C39.0157 55.9146 36.6052 59.044 37.5498 62.1729L69.8703 169.223C70.4474 171.134 72.1538 172.486 74.1484 172.611L104.678 174.533C107.958 174.739 110.463 171.654 109.582 168.491L102.554 143.244C101.673 140.081 104.177 136.996 107.458 137.202L139.088 139.193C141.909 139.371 143.962 141.941 143.507 144.727L138.74 173.959C138.312 176.582 140.112 179.05 142.744 179.449L172.892 184.011Z" fill="black"/>
<path d="M172.892 184.011C175.483 184.403 177.906 182.638 178.324 180.055L196.209 69.6946C196.663 66.8979 194.592 64.3237 191.759 64.1632L160.538 62.3942C158.065 62.2541 155.895 64.0237 155.539 66.4715L150.535 100.825C150.162 103.388 147.811 105.185 145.236 104.876L97.596 99.1526C95.8629 98.9444 94.3808 97.8093 93.7297 96.1916L79.2097 60.1176C78.5033 58.3625 76.8263 57.189 74.9337 57.1252L42.2857 56.0248C39.0157 55.9146 36.6052 59.044 37.5498 62.1729L69.8703 169.223C70.4474 171.134 72.1538 172.486 74.1484 172.611L104.678 174.533C107.958 174.739 110.463 171.654 109.582 168.491L102.554 143.244C101.673 140.081 104.177 136.996 107.458 137.202L139.088 139.193C141.909 139.371 143.962 141.941 143.507 144.727L138.74 173.959C138.312 176.582 140.112 179.05 142.744 179.449L172.892 184.011Z" fill="#FFF7E5"/>
<path d="M42.707 43.5317L75.3545 44.6323C81.973 44.8554 87.8695 48.8381 90.5557 54.8608L90.8057 55.4497L103.619 87.2856L139.252 91.5669L143.17 64.6704L143.17 64.6694C144.462 55.7985 152.319 49.4089 161.245 49.9146L192.467 51.6831C199.19 52.0642 204.738 56.2183 207.279 61.9019C211.129 58.1707 216.648 56.2894 222.289 57.2759L222.729 57.3589L290.163 70.9224C304.813 73.869 317.282 80.0328 325.419 90.7935C333.724 101.777 335.653 115.007 332.853 128.926C331.27 136.789 328.317 144.002 323.473 149.918C322.867 150.684 322.239 151.427 321.589 152.148C322.626 153.675 323.558 155.271 324.375 156.937L324.373 156.937C328.357 164.872 328.259 174.053 326.489 182.849C323.528 197.564 316.101 209.483 303.504 216.731C293.185 222.667 281.295 224.363 268.605 222.938L261.01 243.049L259.877 246.048L257.439 248.132L249.316 238.632L256.421 246.948C257.435 248.137 257.432 248.139 257.43 248.141C257.428 248.143 257.423 248.147 257.42 248.15C257.413 248.156 257.406 248.161 257.398 248.167C257.384 248.18 257.369 248.193 257.354 248.207C257.322 248.233 257.286 248.262 257.248 248.293C257.172 248.356 257.083 248.429 256.982 248.509C256.781 248.67 256.531 248.865 256.231 249.086C255.633 249.529 254.837 250.084 253.848 250.699C251.874 251.926 249.103 253.41 245.586 254.718C238.481 257.361 228.472 259.222 216.186 256.953L141.569 243.168C113.735 238.027 94.2221 213.733 94.5732 186.421L73.3633 185.086C66.1634 184.633 59.9931 179.754 57.9043 172.835L25.583 65.7856C22.2122 54.6204 30.633 43.488 42.1553 43.522L42.707 43.5317Z" stroke="#6C00AB" stroke-width="25"/>
<g filter="url(#filter1_d_1297_2211)">
<path d="M210.355 186.693C212.509 185.039 215.135 184.579 218.232 185.313C220.615 185.878 222.16 186.798 222.865 188.072C223.58 189.299 223.695 190.937 223.209 192.986C223.006 193.844 222.715 194.756 222.335 195.723C221.955 196.69 221.498 197.765 220.966 198.948C219.149 202.795 217.158 205.57 214.993 207.272C212.839 208.926 210.213 209.386 207.116 208.652C204.685 208.076 203.105 207.199 202.378 206.02C201.662 204.793 201.53 203.227 201.982 201.32C202.4 199.557 203.199 197.456 204.381 195.018C206.21 191.122 208.201 188.347 210.355 186.693Z" fill="url(#paint0_linear_1297_2211)"/>
<path d="M210.355 186.693C212.509 185.039 215.135 184.579 218.232 185.313C220.615 185.878 222.16 186.798 222.865 188.072C223.58 189.299 223.695 190.937 223.209 192.986C223.006 193.844 222.715 194.756 222.335 195.723C221.955 196.69 221.498 197.765 220.966 198.948C219.149 202.795 217.158 205.57 214.993 207.272C212.839 208.926 210.213 209.386 207.116 208.652C204.685 208.076 203.105 207.199 202.378 206.02C201.662 204.793 201.53 203.227 201.982 201.32C202.4 199.557 203.199 197.456 204.381 195.018C206.21 191.122 208.201 188.347 210.355 186.693Z" fill="#FFEE00"/>
<path d="M163.693 175.795C164.292 175.493 164.924 176.144 164.604 176.734L159.198 186.716C159.058 186.975 158.769 187.116 158.479 187.066L147.742 185.222C147.091 185.11 146.959 184.232 147.55 183.934L163.693 175.795Z" fill="url(#paint1_linear_1297_2211)"/>
<path d="M163.693 175.795C164.292 175.493 164.924 176.144 164.604 176.734L159.198 186.716C159.058 186.975 158.769 187.116 158.479 187.066L147.742 185.222C147.091 185.11 146.959 184.232 147.55 183.934L163.693 175.795Z" fill="#FFEE00"/>
<path fill-rule="evenodd" clip-rule="evenodd" d="M113.488 177.459C118.383 154.37 141.069 139.622 164.157 144.517L234.593 159.452C248.024 162.3 261.744 174.092 267.305 185.558L247.063 238.66C244.403 238.685 235.348 246.981 216.865 243.062L146.429 228.128C123.341 223.233 108.593 200.547 113.488 177.459ZM223.373 174.451C217.844 173.141 213.049 172.986 208.986 173.986C204.935 174.939 201.443 176.931 198.51 179.961C195.578 182.991 192.959 186.926 190.655 191.766C189.428 194.395 188.538 196.877 187.985 199.212C186.754 204.407 187.289 208.736 189.589 212.201C191.936 215.676 196.064 218.115 201.974 219.515C207.551 220.836 212.341 221.014 216.344 220.05C220.407 219.05 223.904 217.035 226.837 214.005C229.817 210.986 232.437 207.051 234.693 202.2C235.296 200.933 235.785 199.715 236.162 198.546C236.599 197.341 236.953 196.167 237.224 195.023C238.421 189.971 237.934 185.652 235.764 182.068C233.652 178.446 229.521 175.908 223.373 174.451ZM170.998 201.227C170.682 201.153 170.357 201.31 170.219 201.604L166.524 209.513C166.34 209.907 166.564 210.37 166.987 210.47L176.205 212.654C176.521 212.729 176.846 212.572 176.984 212.278L180.679 204.369C180.863 203.975 180.639 203.512 180.216 203.412L170.998 201.227ZM169.142 162.356C168.965 162.315 168.78 162.344 168.625 162.438L133.455 183.954C133.341 184.024 133.25 184.125 133.193 184.246L129.699 191.65C129.514 192.044 129.737 192.509 130.161 192.609L149.466 197.183C149.888 197.283 150.113 197.746 149.929 198.139L146.803 204.841C146.62 205.234 146.844 205.697 147.267 205.797L159.345 208.659C159.661 208.734 159.986 208.577 160.124 208.282L163.489 201.067C163.627 200.773 163.952 200.616 164.268 200.691L167.333 201.416C167.647 201.49 167.971 201.336 168.11 201.045L172.438 192.003C172.626 191.608 172.403 191.141 171.977 191.04L169.481 190.449C169.057 190.348 168.833 189.883 169.019 189.489L180.16 165.817C180.345 165.423 180.121 164.958 179.697 164.857L169.142 162.356Z" fill="url(#paint2_linear_1297_2211)"/>
<path fill-rule="evenodd" clip-rule="evenodd" d="M113.488 177.459C118.383 154.37 141.069 139.622 164.157 144.517L234.593 159.452C248.024 162.3 261.744 174.092 267.305 185.558L247.063 238.66C244.403 238.685 235.348 246.981 216.865 243.062L146.429 228.128C123.341 223.233 108.593 200.547 113.488 177.459ZM223.373 174.451C217.844 173.141 213.049 172.986 208.986 173.986C204.935 174.939 201.443 176.931 198.51 179.961C195.578 182.991 192.959 186.926 190.655 191.766C189.428 194.395 188.538 196.877 187.985 199.212C186.754 204.407 187.289 208.736 189.589 212.201C191.936 215.676 196.064 218.115 201.974 219.515C207.551 220.836 212.341 221.014 216.344 220.05C220.407 219.05 223.904 217.035 226.837 214.005C229.817 210.986 232.437 207.051 234.693 202.2C235.296 200.933 235.785 199.715 236.162 198.546C236.599 197.341 236.953 196.167 237.224 195.023C238.421 189.971 237.934 185.652 235.764 182.068C233.652 178.446 229.521 175.908 223.373 174.451ZM170.998 201.227C170.682 201.153 170.357 201.31 170.219 201.604L166.524 209.513C166.34 209.907 166.564 210.37 166.987 210.47L176.205 212.654C176.521 212.729 176.846 212.572 176.984 212.278L180.679 204.369C180.863 203.975 180.639 203.512 180.216 203.412L170.998 201.227ZM169.142 162.356C168.965 162.315 168.78 162.344 168.625 162.438L133.455 183.954C133.341 184.024 133.25 184.125 133.193 184.246L129.699 191.65C129.514 192.044 129.737 192.509 130.161 192.609L149.466 197.183C149.888 197.283 150.113 197.746 149.929 198.139L146.803 204.841C146.62 205.234 146.844 205.697 147.267 205.797L159.345 208.659C159.661 208.734 159.986 208.577 160.124 208.282L163.489 201.067C163.627 200.773 163.952 200.616 164.268 200.691L167.333 201.416C167.647 201.49 167.971 201.336 168.11 201.045L172.438 192.003C172.626 191.608 172.403 191.141 171.977 191.04L169.481 190.449C169.057 190.348 168.833 189.883 169.019 189.489L180.16 165.817C180.345 165.423 180.121 164.958 179.697 164.857L169.142 162.356Z" fill="#FFEE00"/>
</g>
<g filter="url(#filter2_dn_1297_2211)">
<path d="M114.909 177.751C119.635 155.464 141.532 141.228 163.819 145.954L234.254 160.888C240.682 162.251 247.259 165.778 252.931 170.407C258.406 174.876 262.947 180.299 265.656 185.62L245.938 237.348C245.665 237.431 245.403 237.531 245.164 237.629C244.579 237.87 243.888 238.204 243.152 238.554C241.651 239.269 239.766 240.15 237.41 240.912C232.725 242.428 226.104 243.495 217.141 241.594L146.706 226.66C124.42 221.934 110.184 200.037 114.909 177.751Z" stroke="url(#paint3_linear_1297_2211)" stroke-width="2.96855" shape-rendering="crispEdges"/>
</g>
<path d="M223.488 173.827C229.721 175.303 234.058 177.911 236.305 181.755L236.306 181.755C238.591 185.529 239.076 190.041 237.848 195.223C237.572 196.388 237.212 197.579 236.771 198.799C236.383 200 235.882 201.247 235.269 202.537C232.989 207.437 230.331 211.438 227.286 214.523L227.287 214.524C224.265 217.646 220.654 219.727 216.465 220.759L216.462 220.76C212.321 221.757 207.416 221.562 201.773 220.225C195.77 218.803 191.456 216.299 188.977 212.628L188.974 212.623C186.541 208.959 186.013 204.421 187.274 199.097C187.84 196.708 188.748 194.181 189.99 191.519L189.993 191.514C192.321 186.625 194.979 182.622 197.975 179.527C200.998 176.404 204.605 174.345 208.786 173.362C212.984 172.33 217.893 172.501 223.488 173.827ZM179.812 164.233C180.66 164.434 181.108 165.363 180.737 166.151L169.596 189.825L172.092 190.416C172.943 190.618 173.39 191.554 173.013 192.342L168.686 201.384C168.407 201.966 167.76 202.275 167.133 202.126L164.067 201.4L160.702 208.614C160.427 209.204 159.776 209.519 159.143 209.369L147.066 206.508C146.22 206.307 145.772 205.381 146.139 204.594L149.264 197.893L129.96 193.319C129.112 193.118 128.664 192.188 129.036 191.4L132.53 183.997C132.644 183.755 132.826 183.551 133.054 183.412L168.224 161.897C168.533 161.708 168.904 161.648 169.256 161.732L179.812 164.233ZM180.331 202.788C181.177 202.988 181.625 203.915 181.257 204.702L177.562 212.61C177.287 213.199 176.636 213.514 176.004 213.364L166.785 211.18C165.94 210.979 165.492 210.053 165.86 209.265L169.555 201.358C169.83 200.769 170.481 200.454 171.114 200.604L180.331 202.788ZM218.031 186.023C215.095 185.327 212.69 185.773 210.729 187.28C208.699 188.839 206.766 191.504 204.959 195.352L204.955 195.36C203.786 197.773 203.008 199.824 202.606 201.521C202.181 203.313 202.328 204.679 202.919 205.703L203.036 205.878C203.67 206.744 204.996 207.499 207.23 208.028C210.166 208.724 212.571 208.278 214.532 206.771C216.578 205.161 218.51 202.494 220.302 198.701C220.829 197.529 221.28 196.468 221.654 195.515C222.024 194.573 222.305 193.692 222.5 192.87C222.964 190.911 222.822 189.475 222.229 188.46L222.221 188.447C221.657 187.427 220.349 186.572 218.031 186.023ZM147.551 184.584L158.552 186.435L163.969 176.43L147.551 184.584Z" fill="#7709B8" stroke="#FFD000" stroke-width="1.37098"/>
<mask id="mask0_1297_2211" style="mask-type:alpha" maskUnits="userSpaceOnUse" x="112" y="143" width="156" height="102">
<path d="M113.396 177.473C118.292 154.385 140.977 139.637 164.066 144.532L234.501 159.466C247.932 162.314 261.652 174.107 267.214 185.572L246.971 238.675C244.311 238.7 235.256 246.996 216.773 243.077L146.337 228.142C123.249 223.247 108.501 200.561 113.396 177.473ZM223.282 174.465C217.754 173.156 212.958 173.001 208.896 174.002C204.845 174.954 201.352 176.946 198.42 179.976C195.487 183.006 192.869 186.941 190.564 191.781C189.337 194.409 188.447 196.891 187.893 199.227C186.662 204.422 187.197 208.752 189.497 212.216C191.845 215.692 195.974 218.129 201.884 219.53C207.46 220.851 212.249 221.029 216.253 220.065C220.315 219.065 223.813 217.049 226.746 214.019C229.726 211.001 232.345 207.066 234.602 202.215C235.204 200.948 235.694 199.73 236.072 198.562C236.508 197.356 236.862 196.181 237.133 195.037C238.33 189.985 237.843 185.667 235.672 182.082C233.56 178.461 229.43 175.922 223.282 174.465ZM170.907 201.243C170.591 201.168 170.265 201.325 170.128 201.62L166.432 209.527C166.248 209.921 166.472 210.384 166.895 210.485L176.113 212.669C176.429 212.744 176.755 212.586 176.892 212.292L180.588 204.383C180.771 203.99 180.548 203.527 180.125 203.427L170.907 201.243ZM210.263 186.709C212.417 185.055 215.043 184.594 218.141 185.328C220.524 185.892 222.068 186.812 222.773 188.086C223.489 189.313 223.604 190.952 223.119 193.001C222.916 193.859 222.624 194.771 222.244 195.738C221.864 196.705 221.407 197.78 220.876 198.962C219.058 202.81 217.066 205.586 214.901 207.287C212.748 208.941 210.122 209.401 207.024 208.667C204.594 208.092 203.015 207.214 202.287 206.035C201.571 204.808 201.438 203.241 201.89 201.335C202.308 199.571 203.109 197.471 204.29 195.033C206.119 191.138 208.11 188.363 210.263 186.709ZM169.05 162.371C168.874 162.329 168.689 162.359 168.535 162.453L133.363 183.969C133.25 184.038 133.159 184.14 133.101 184.261L129.608 191.664C129.422 192.058 129.646 192.523 130.069 192.623L149.374 197.197C149.797 197.297 150.021 197.761 149.838 198.155L146.713 204.856C146.529 205.25 146.753 205.712 147.176 205.813L159.254 208.675C159.57 208.749 159.896 208.591 160.033 208.297L163.398 201.082C163.535 200.787 163.861 200.63 164.177 200.705L167.243 201.431C167.556 201.505 167.88 201.351 168.019 201.06L172.347 192.018C172.536 191.624 172.312 191.156 171.887 191.055L169.389 190.463C168.966 190.363 168.742 189.898 168.927 189.505L180.068 165.831C180.253 165.437 180.029 164.973 179.606 164.873L169.05 162.371ZM163.444 175.951C164.052 175.627 164.704 176.301 164.361 176.898L158.692 186.735C158.547 186.988 158.256 187.121 157.97 187.066L148.562 185.265C147.927 185.143 147.798 184.291 148.369 183.987L163.444 175.951Z" fill="url(#paint4_linear_1297_2211)"/>
</mask>
<g mask="url(#mask0_1297_2211)">
<rect x="168.194" y="126.009" width="36.0636" height="124.153" transform="rotate(20.8343 168.194 126.009)" fill="#FFFCC7" fill-opacity="0.45"/>
<rect x="220.12" y="131.65" width="12.5448" height="124.153" transform="rotate(20.3005 220.12 131.65)" fill="#FFFCC7" fill-opacity="0.45"/>
<rect x="245.019" y="139.098" width="5.34146" height="124.153" transform="rotate(20.3005 245.019 139.098)" fill="#FFFCC7" fill-opacity="0.45"/>
</g>
<g filter="url(#filter3_d_1297_2211)">
<path d="M247.097 238.652C237.208 231.609 235.005 191.924 267.006 185.849C262.603 198.393 255.014 220.298 247.097 238.652Z" fill="url(#paint5_linear_1297_2211)"/>
<path d="M247.097 238.652C237.208 231.609 235.005 191.924 267.006 185.849C262.603 198.393 255.014 220.298 247.097 238.652Z" fill="black" fill-opacity="0.24"/>
<path d="M247.097 238.652C237.208 231.609 235.005 191.924 267.006 185.849C262.603 198.393 255.014 220.298 247.097 238.652Z" stroke="url(#paint6_linear_1297_2211)" stroke-width="0.342745"/>
</g>
</g>
<defs>
<filter id="filter0_d_1297_2211" x="6.01609" y="31.0215" width="346.845" height="252.065" filterUnits="userSpaceOnUse" color-interpolation-filters="sRGB">
<feFlood flood-opacity="0" result="BackgroundImageFix"/>
<feColorMatrix in="SourceAlpha" type="matrix" values="0 0 0 0 0 0 0 0 0 0 0 0 0 0 0 0 0 0 127 0" result="hardAlpha"/>
<feOffset dy="6.30715"/>
<feGaussianBlur stdDeviation="3.15357"/>
<feComposite in2="hardAlpha" operator="out"/>
<feColorMatrix type="matrix" values="0 0 0 0 0 0 0 0 0 0 0 0 0 0 0 0 0 0 0.25 0"/>
<feBlend mode="normal" in2="BackgroundImageFix" result="effect1_dropShadow_1297_2211"/>
<feBlend mode="normal" in="SourceGraphic" in2="effect1_dropShadow_1297_2211" result="shape"/>
</filter>
<filter id="filter1_d_1297_2211" x="112.55" y="143.579" width="154.754" height="106.472" filterUnits="userSpaceOnUse" color-interpolation-filters="sRGB">
<feFlood flood-opacity="0" result="BackgroundImageFix"/>
<feColorMatrix in="SourceAlpha" type="matrix" values="0 0 0 0 0 0 0 0 0 0 0 0 0 0 0 0 0 0 127 0" result="hardAlpha"/>
<feOffset dy="5.93709"/>
<feComposite in2="hardAlpha" operator="out"/>
<feColorMatrix type="matrix" values="0 0 0 0 0 0 0 0 0 0 0 0 0 0 0 0 0 0 0.27 0"/>
<feBlend mode="normal" in2="BackgroundImageFix" result="effect1_dropShadow_1297_2211"/>
<feBlend mode="normal" in="SourceGraphic" in2="effect1_dropShadow_1297_2211" result="shape"/>
</filter>
<filter id="filter2_dn_1297_2211" x="109.777" y="143.564" width="160.242" height="106.018" filterUnits="userSpaceOnUse" color-interpolation-filters="sRGB">
<feFlood flood-opacity="0" result="BackgroundImageFix"/>
<feColorMatrix in="SourceAlpha" type="matrix" values="0 0 0 0 0 0 0 0 0 0 0 0 0 0 0 0 0 0 127 0" result="hardAlpha"/>
<feOffset dy="2.74196"/>
<feGaussianBlur stdDeviation="1.37098"/>
<feComposite in2="hardAlpha" operator="out"/>
<feColorMatrix type="matrix" values="0 0 0 0 0 0 0 0 0 0 0 0 0 0 0 0 0 0 0.25 0"/>
<feBlend mode="normal" in2="BackgroundImageFix" result="effect1_dropShadow_1297_2211"/>
<feBlend mode="normal" in="SourceGraphic" in2="BackgroundImageFix" result="shape"/>
<feTurbulence type="fractalNoise" baseFrequency="0.12468452006578445 0.12468452006578445" stitchTiles="stitch" numOctaves="3" result="noise" seed="6754" />
<feColorMatrix in="noise" type="luminanceToAlpha" result="alphaNoise" />
<feComponentTransfer in="alphaNoise" result="coloredNoise1">
<feFuncA type="discrete" tableValues="0 0 0 0 0 0 0 0 0 0 0 0 0 0 0 0 0 1 1 1 1 1 1 1 1 1 1 1 1 1 1 1 0 0 0 0 0 0 0 0 0 0 0 0 0 0 0 0 0 0 0 0 0 0 0 0 0 0 0 0 0 0 0 0 0 0 0 0 0 0 0 0 0 0 0 0 0 0 0 0 0 0 0 0 0 0 0 0 0 0 0 0 0 0 0 0 0 0 0 0 "/>
</feComponentTransfer>
<feComposite operator="in" in2="shape" in="coloredNoise1" result="noise1Clipped" />
<feComponentTransfer in="alphaNoise" result="coloredNoise2">
<feFuncA type="discrete" tableValues="0 0 0 0 0 0 0 0 0 0 0 0 0 0 0 0 0 0 0 0 0 0 0 0 0 0 0 0 0 0 0 0 0 0 0 0 0 0 0 0 0 0 0 0 0 0 0 0 0 0 0 0 0 0 0 0 0 0 0 0 0 0 0 0 0 0 0 0 1 1 1 1 1 1 1 1 1 1 1 1 1 1 1 0 0 0 0 0 0 0 0 0 0 0 0 0 0 0 0 0 "/>
</feComponentTransfer>
<feComposite operator="in" in2="shape" in="coloredNoise2" result="noise2Clipped" />
<feFlood flood-color="rgba(255, 196, 0, 0.72)" result="color1Flood" />
<feComposite operator="in" in2="noise1Clipped" in="color1Flood" result="color1" />
<feFlood flood-color="rgba(255, 255, 255, 0.44)" result="color2Flood" />
<feComposite operator="in" in2="noise2Clipped" in="color2Flood" result="color2" />
<feMerge result="effect2_noise_1297_2211">
<feMergeNode in="shape" />
<feMergeNode in="color1" />
<feMergeNode in="color2" />
</feMerge>
<feBlend mode="normal" in="effect2_noise_1297_2211" in2="effect1_dropShadow_1297_2211" result="effect2_noise_1297_2211"/>
</filter>
<filter id="filter3_d_1297_2211" x="239.267" y="185.145" width="31.9047" height="58.3619" filterUnits="userSpaceOnUse" color-interpolation-filters="sRGB">
<feFlood flood-opacity="0" result="BackgroundImageFix"/>
<feColorMatrix in="SourceAlpha" type="matrix" values="0 0 0 0 0 0 0 0 0 0 0 0 0 0 0 0 0 0 127 0" result="hardAlpha"/>
<feOffset dx="1.37098" dy="2.05647"/>
<feGaussianBlur stdDeviation="1.26816"/>
<feComposite in2="hardAlpha" operator="out"/>
<feColorMatrix type="matrix" values="0 0 0 0 0 0 0 0 0 0 0 0 0 0 0 0 0 0 0.48 0"/>
<feBlend mode="normal" in2="BackgroundImageFix" result="effect1_dropShadow_1297_2211"/>
<feBlend mode="normal" in="SourceGraphic" in2="effect1_dropShadow_1297_2211" result="shape"/>
</filter>
<linearGradient id="paint0_linear_1297_2211" x1="130.428" y1="178.851" x2="290.189" y2="235.01" gradientUnits="userSpaceOnUse">
<stop stop-color="#FFE030"/>
<stop offset="0.261174" stop-color="#FFFDEB"/>
<stop offset="0.360249" stop-color="#FFE610"/>
<stop offset="0.439479" stop-color="#FFF9C4"/>
<stop offset="0.614238" stop-color="#FFE514"/>
<stop offset="1" stop-color="#FFE41A"/>
</linearGradient>
<linearGradient id="paint1_linear_1297_2211" x1="130.428" y1="178.851" x2="290.189" y2="235.01" gradientUnits="userSpaceOnUse">
<stop stop-color="#FFE030"/>
<stop offset="0.261174" stop-color="#FFFDEB"/>
<stop offset="0.360249" stop-color="#FFE610"/>
<stop offset="0.439479" stop-color="#FFF9C4"/>
<stop offset="0.614238" stop-color="#FFE514"/>
<stop offset="1" stop-color="#FFE41A"/>
</linearGradient>
<linearGradient id="paint2_linear_1297_2211" x1="130.428" y1="178.851" x2="290.189" y2="235.01" gradientUnits="userSpaceOnUse">
<stop stop-color="#FFE030"/>
<stop offset="0.261174" stop-color="#FFFDEB"/>
<stop offset="0.360249" stop-color="#FFE610"/>
<stop offset="0.439479" stop-color="#FFF9C4"/>
<stop offset="0.614238" stop-color="#FFE514"/>
<stop offset="1" stop-color="#FFE41A"/>
</linearGradient>
<linearGradient id="paint3_linear_1297_2211" x1="133.135" y1="155.46" x2="191.598" y2="244.423" gradientUnits="userSpaceOnUse">
<stop stop-color="#FFF459"/>
<stop offset="1" stop-color="#E9B334"/>
</linearGradient>
<linearGradient id="paint4_linear_1297_2211" x1="146.526" y1="181.963" x2="290.096" y2="235.026" gradientUnits="userSpaceOnUse">
<stop stop-color="#FFEC1A"/>
<stop offset="0.380812" stop-color="#FFE60B"/>
<stop offset="1" stop-color="#FFE41A"/>
</linearGradient>
<linearGradient id="paint5_linear_1297_2211" x1="241.456" y1="204.703" x2="257.854" y2="211.341" gradientUnits="userSpaceOnUse">
<stop stop-color="#D1D1D1"/>
<stop offset="0.3423" stop-color="#FAFAFA"/>
<stop offset="0.573639" stop-color="white"/>
<stop offset="1" stop-color="#666666"/>
</linearGradient>
<linearGradient id="paint6_linear_1297_2211" x1="243.974" y1="199.356" x2="267.196" y2="207.503" gradientUnits="userSpaceOnUse">
<stop stop-color="white"/>
<stop offset="1" stop-color="#0B0B0B"/>
</linearGradient>
</defs>
</svg>
