<svg width="354" height="359" viewBox="0 0 354 359" fill="none" xmlns="http://www.w3.org/2000/svg">
<g filter="url(#filter0_d_969_2727)">
<path d="M312.367 202.059C323.761 205.933 332.221 211.859 336.972 220.201C341.769 228.624 342.102 238.23 338.586 248.573C336.59 254.445 333.728 259.324 329.858 262.974C328.502 264.306 327.065 265.494 325.545 266.527C325.227 266.743 324.825 267.262 324.66 268.042C324.495 268.821 324.663 269.38 324.83 269.632C326.212 271.71 327.302 273.91 328.087 276.229L328.086 276.228C329.96 281.54 329.305 287.807 327 294.586C323.281 305.526 316.693 313.319 307.08 317.309C297.557 321.262 286.576 320.838 274.492 316.73L274.332 316.676L274.177 316.61L218.002 292.316C214.017 290.593 212.014 286.105 213.394 281.987L244.904 187.99C246.375 183.599 251.136 181.243 255.519 182.733L312.367 202.059ZM283.432 274.152C282.907 273.303 281.593 272.143 278.568 271.115L264.685 266.393L261.314 276.309L275.528 281.144C278.357 282.105 279.963 281.918 280.839 281.533C281.631 281.184 282.633 280.316 283.443 277.934C284.133 275.903 283.851 274.832 283.432 274.152ZM295.686 233.798C295.387 233.192 294.373 232.066 291.278 231.013L278.221 226.574L275.075 235.829L288.628 240.438C291.312 241.351 292.793 241.172 293.557 240.847C294.213 240.567 295.096 239.855 295.821 237.721C296.476 235.796 296.227 234.745 295.827 234.061L295.752 233.932L295.686 233.798Z" fill="#9E00F9" stroke="white" stroke-width="8.37354"/>
<mask id="mask0_969_2727" style="mask-type:alpha" maskUnits="userSpaceOnUse" x="208" y="178" width="138" height="147">
<path d="M312.364 202.059C323.757 205.933 332.217 211.859 336.968 220.201C341.765 228.624 342.098 238.231 338.582 248.574C336.586 254.445 333.725 259.324 329.854 262.974C328.498 264.306 327.061 265.495 325.541 266.528C325.223 266.744 324.821 267.262 324.656 268.042C324.491 268.821 324.659 269.38 324.827 269.632C326.208 271.71 327.298 273.91 328.083 276.229L328.083 276.228C329.956 281.54 329.301 287.807 326.996 294.587C323.277 305.527 316.689 313.319 307.077 317.309C297.553 321.262 286.572 320.839 274.488 316.73L274.328 316.677L274.173 316.61L217.999 292.316C214.013 290.593 212.01 286.105 213.39 281.987L244.9 187.99C246.372 183.599 251.132 181.243 255.515 182.733L312.364 202.059ZM283.428 274.153C282.903 273.303 281.589 272.143 278.564 271.115L264.681 266.393L261.31 276.31L275.524 281.144C278.353 282.106 279.959 281.919 280.835 281.533C281.627 281.184 282.629 280.316 283.439 277.934C284.129 275.904 283.848 274.832 283.428 274.153ZM295.682 233.798C295.384 233.192 294.369 232.066 291.274 231.014L278.217 226.574L275.071 235.829L288.624 240.438C291.308 241.351 292.79 241.173 293.553 240.847C294.209 240.567 295.092 239.855 295.818 237.722C296.472 235.796 296.223 234.745 295.823 234.061L295.748 233.932L295.682 233.798Z" fill="#9E00F9" stroke="#FFEE00" stroke-width="8.37354"/>
</mask>
<g mask="url(#mask0_969_2727)">
<rect x="275.418" y="175.462" width="42.2588" height="145.481" transform="rotate(33.0919 275.418 175.462)" fill="#FFFCC7" fill-opacity="0.3"/>
<rect x="333.492" y="194.817" width="14.6998" height="145.481" transform="rotate(32.5581 333.492 194.817)" fill="#FFFCC7" fill-opacity="0.3"/>
<rect x="360.137" y="209.542" width="6.25905" height="145.481" transform="rotate(32.5581 360.137 209.542)" fill="#FFFCC7" fill-opacity="0.3"/>
</g>
</g>
<g filter="url(#filter1_d_969_2727)">
<g filter="url(#filter2_d_969_2727)">
<path d="M121.77 163.16C123.378 135.551 147.063 114.473 174.672 116.081L258.9 120.985C274.961 121.92 292.932 133.168 301.392 145.471L287.287 210.553C284.21 211.05 275.18 222.254 253.077 220.967L168.85 216.063C141.241 214.455 120.163 190.769 121.77 163.16ZM248.527 140.368C241.892 139.824 236.309 140.489 231.778 142.363C227.253 144.18 223.558 147.101 220.694 151.127C217.829 155.154 215.489 160.173 213.671 166.186C212.712 169.447 212.118 172.479 211.888 175.282C211.376 181.517 212.758 186.439 216.032 190.047C219.363 193.661 224.575 195.758 231.668 196.34C238.361 196.89 243.941 196.254 248.409 194.433C252.94 192.558 256.638 189.608 259.502 185.581C262.423 181.56 264.764 176.54 266.525 170.523C266.999 168.949 267.352 167.452 267.584 166.032C267.878 164.559 268.081 163.136 268.194 161.763C268.691 155.7 267.367 150.783 264.222 147.012C261.138 143.188 255.906 140.974 248.527 140.368ZM192.132 180.572C192.004 180.561 191.887 180.642 191.85 180.765L188.653 191.62C188.605 191.785 188.72 191.953 188.891 191.967L201.038 192.964C201.166 192.974 201.284 192.893 201.321 192.77L204.517 181.915C204.565 181.75 204.451 181.582 204.28 181.568L192.132 180.572ZM235.6 156.843C237.804 154.547 240.766 153.552 244.484 153.857C247.343 154.091 249.294 154.885 250.334 156.237C251.38 157.532 251.802 159.41 251.6 161.87C251.516 162.899 251.338 164.008 251.067 165.195C250.797 166.382 250.458 167.708 250.05 169.171C248.622 173.949 246.803 177.514 244.594 179.866C242.391 182.162 239.43 183.157 235.712 182.852C232.795 182.613 230.811 181.874 229.761 180.636C228.716 179.341 228.286 177.549 228.474 175.261C228.648 173.144 229.204 170.57 230.144 167.537C231.577 162.703 233.396 159.138 235.6 156.843ZM183.352 135.884C183.281 135.878 183.21 135.9 183.155 135.946L145.908 167.305C145.868 167.339 145.838 167.385 145.823 167.435L142.845 177.408C142.796 177.573 142.911 177.742 143.082 177.756L167.558 179.764C167.729 179.778 167.844 179.946 167.796 180.111L164.986 189.678C164.938 189.843 165.053 190.011 165.224 190.025L180.804 191.303C180.932 191.314 181.05 191.233 181.086 191.11L183.959 181.327C183.995 181.204 184.112 181.123 184.24 181.133L188.779 181.505C188.906 181.516 189.024 181.437 189.061 181.315L192.801 169.035C192.851 168.87 192.736 168.701 192.564 168.687L188.255 168.333C188.084 168.319 187.968 168.151 188.017 167.986L197.131 137.342C197.18 137.177 197.066 137.009 196.894 136.995L183.352 135.884ZM181.009 151.446C181.225 151.293 181.511 151.51 181.421 151.759L176.209 166.232C176.17 166.342 176.066 166.414 175.949 166.412L161.19 166.126C160.929 166.121 160.826 165.786 161.039 165.635L181.009 151.446Z" fill="url(#paint0_linear_969_2727)"/>
<path d="M121.77 163.16C123.378 135.551 147.063 114.473 174.672 116.081L258.9 120.985C274.961 121.92 292.932 133.168 301.392 145.471L287.287 210.553C284.21 211.05 275.18 222.254 253.077 220.967L168.85 216.063C141.241 214.455 120.163 190.769 121.77 163.16ZM248.527 140.368C241.892 139.824 236.309 140.489 231.778 142.363C227.253 144.18 223.558 147.101 220.694 151.127C217.829 155.154 215.489 160.173 213.671 166.186C212.712 169.447 212.118 172.479 211.888 175.282C211.376 181.517 212.758 186.439 216.032 190.047C219.363 193.661 224.575 195.758 231.668 196.34C238.361 196.89 243.941 196.254 248.409 194.433C252.94 192.558 256.638 189.608 259.502 185.581C262.423 181.56 264.764 176.54 266.525 170.523C266.999 168.949 267.352 167.452 267.584 166.032C267.878 164.559 268.081 163.136 268.194 161.763C268.691 155.7 267.367 150.783 264.222 147.012C261.138 143.188 255.906 140.974 248.527 140.368ZM192.132 180.572C192.004 180.561 191.887 180.642 191.85 180.765L188.653 191.62C188.605 191.785 188.72 191.953 188.891 191.967L201.038 192.964C201.166 192.974 201.284 192.893 201.321 192.77L204.517 181.915C204.565 181.75 204.451 181.582 204.28 181.568L192.132 180.572ZM235.6 156.843C237.804 154.547 240.766 153.552 244.484 153.857C247.343 154.091 249.294 154.885 250.334 156.237C251.38 157.532 251.802 159.41 251.6 161.87C251.516 162.899 251.338 164.008 251.067 165.195C250.797 166.382 250.458 167.708 250.05 169.171C248.622 173.949 246.803 177.514 244.594 179.866C242.391 182.162 239.43 183.157 235.712 182.852C232.795 182.613 230.811 181.874 229.761 180.636C228.716 179.341 228.286 177.549 228.474 175.261C228.648 173.144 229.204 170.57 230.144 167.537C231.577 162.703 233.396 159.138 235.6 156.843ZM183.352 135.884C183.281 135.878 183.21 135.9 183.155 135.946L145.908 167.305C145.868 167.339 145.838 167.385 145.823 167.435L142.845 177.408C142.796 177.573 142.911 177.742 143.082 177.756L167.558 179.764C167.729 179.778 167.844 179.946 167.796 180.111L164.986 189.678C164.938 189.843 165.053 190.011 165.224 190.025L180.804 191.303C180.932 191.314 181.05 191.233 181.086 191.11L183.959 181.327C183.995 181.204 184.112 181.123 184.24 181.133L188.779 181.505C188.906 181.516 189.024 181.437 189.061 181.315L192.801 169.035C192.851 168.87 192.736 168.701 192.564 168.687L188.255 168.333C188.084 168.319 187.968 168.151 188.017 167.986L197.131 137.342C197.18 137.177 197.066 137.009 196.894 136.995L183.352 135.884ZM181.009 151.446C181.225 151.293 181.511 151.51 181.421 151.759L176.209 166.232C176.17 166.342 176.066 166.414 175.949 166.412L161.19 166.126C160.929 166.121 160.826 165.786 161.039 165.635L181.009 151.446Z" fill="#FFEE00"/>
</g>
<path d="M248.579 140.121C255.992 140.729 261.309 142.958 264.459 146.86L264.753 147.224C267.742 151.011 268.979 155.883 268.493 161.808C268.379 163.192 268.175 164.626 267.879 166.108L267.878 166.107C267.644 167.538 267.29 169.044 266.813 170.624C265.046 176.661 262.693 181.708 259.751 185.76L259.752 185.761C256.858 189.829 253.12 192.811 248.542 194.705L248.541 194.706C244.021 196.549 238.394 197.184 231.675 196.633C224.544 196.048 219.256 193.936 215.861 190.254L215.859 190.253C212.521 186.574 211.131 181.57 211.647 175.283C211.878 172.458 212.476 169.408 213.439 166.132L213.44 166.13C215.264 160.097 217.617 155.049 220.502 150.993C223.395 146.925 227.132 143.97 231.706 142.134C236.287 140.239 241.916 139.574 248.579 140.121ZM196.945 136.747C197.288 136.775 197.518 137.112 197.42 137.442L188.305 168.085L192.615 168.439C192.959 168.467 193.19 168.807 193.089 169.137L189.349 181.416C189.274 181.66 189.04 181.819 188.786 181.798L184.247 181.426L181.375 191.208C181.302 191.455 181.066 191.617 180.81 191.596L165.231 190.317C164.889 190.289 164.658 189.954 164.755 189.625L167.565 180.057L143.089 178.048C142.746 178.02 142.516 177.683 142.614 177.353L145.592 167.381C145.622 167.279 145.682 167.189 145.762 167.121L183.01 135.762C183.12 135.67 183.261 135.624 183.404 135.636L196.945 136.747ZM204.33 181.321C204.673 181.349 204.902 181.684 204.806 182.013L201.609 192.87C201.537 193.116 201.3 193.277 201.044 193.256L188.898 192.26C188.555 192.231 188.326 191.896 188.423 191.566L191.619 180.711C191.692 180.465 191.927 180.303 192.183 180.324L204.33 181.321ZM244.49 154.15C240.837 153.85 237.962 154.827 235.825 157.053C233.664 159.304 231.861 162.822 230.433 167.637L230.432 167.64C229.496 170.662 228.945 173.216 228.773 175.306C228.589 177.548 229.012 179.261 229.997 180.484L230.19 180.694C231.214 181.726 233.046 182.382 235.763 182.605C239.416 182.905 242.291 181.927 244.428 179.701C246.596 177.392 248.398 173.872 249.82 169.117C250.226 167.658 250.564 166.338 250.833 165.157C251.1 163.98 251.276 162.885 251.359 161.871C251.558 159.447 251.137 157.65 250.152 156.43L250.149 156.425C249.178 155.164 247.323 154.383 244.49 154.15ZM160.893 165.923L175.984 166.164L181.197 151.681L160.893 165.923Z" fill="#7709B8" stroke="#FFD000" stroke-width="0.541867"/>
<g filter="url(#filter3_dn_969_2727)">
<path d="M122.362 163.191C123.951 135.905 147.359 115.073 174.645 116.662L258.872 121.567C266.786 122.028 275.204 125.035 282.704 129.467C290.118 133.849 296.592 139.601 300.771 145.595L286.797 210.071C286.402 210.203 285.981 210.428 285.545 210.69C284.943 211.052 284.234 211.537 283.429 212.082C281.809 213.179 279.727 214.568 277.061 215.901C271.738 218.563 264.057 221.016 253.118 220.379L168.891 215.474C141.605 213.885 120.773 190.477 122.362 163.191Z" stroke="url(#paint1_linear_969_2727)" stroke-width="1.17329" shape-rendering="crispEdges"/>
</g>
<mask id="mask1_969_2727" style="mask-type:alpha" maskUnits="userSpaceOnUse" x="121" y="115" width="181" height="107">
<path d="M121.751 163.162C123.359 135.553 147.043 114.475 174.653 116.082L258.881 120.987C274.941 121.922 292.912 133.169 301.373 145.473L287.268 210.555C284.19 211.051 275.16 222.256 253.058 220.969L168.831 216.064C141.221 214.457 120.143 190.771 121.751 163.162ZM248.508 140.37C241.872 139.825 236.289 140.49 231.759 142.365C227.233 144.182 223.538 147.103 220.674 151.129C217.81 155.155 215.469 160.175 213.651 166.188C212.693 169.449 212.098 172.481 211.868 175.284C211.357 181.519 212.738 186.44 216.012 190.049C219.344 193.663 224.556 195.76 231.649 196.342C238.341 196.891 243.921 196.256 248.39 194.434C252.92 192.56 256.618 189.61 259.482 185.583C262.404 181.562 264.745 176.541 266.505 170.524C266.98 168.951 267.333 167.454 267.565 166.033C267.858 164.56 268.061 163.137 268.174 161.765C268.672 155.701 267.348 150.784 264.202 147.013C261.118 143.189 255.886 140.975 248.508 140.37ZM192.112 180.573C191.984 180.563 191.867 180.644 191.831 180.767L188.634 191.622C188.585 191.787 188.701 191.955 188.872 191.969L201.019 192.965C201.147 192.976 201.265 192.895 201.301 192.772L204.497 181.917C204.546 181.752 204.43 181.584 204.259 181.57L192.112 180.573ZM235.581 156.844C237.784 154.549 240.746 153.553 244.464 153.858C247.324 154.093 249.274 154.887 250.315 156.239C251.36 157.534 251.782 159.412 251.581 161.872C251.496 162.901 251.318 164.009 251.048 165.196C250.778 166.383 250.439 167.709 250.031 169.173C248.602 173.951 246.783 177.515 244.575 179.868C242.371 182.163 239.41 183.159 235.692 182.854C232.775 182.614 230.792 181.875 229.741 180.637C228.696 179.342 228.267 177.551 228.454 175.263C228.628 173.146 229.185 170.572 230.125 167.539C231.558 162.705 233.377 159.14 235.581 156.844ZM183.333 135.885C183.262 135.88 183.191 135.902 183.136 135.948L145.889 167.307C145.849 167.341 145.819 167.386 145.803 167.437L142.826 177.41C142.777 177.575 142.891 177.744 143.063 177.758L167.538 179.766C167.709 179.78 167.825 179.948 167.776 180.113L164.966 189.68C164.918 189.845 165.033 190.013 165.204 190.027L180.784 191.305C180.912 191.315 181.03 191.235 181.066 191.111L183.939 181.328C183.975 181.205 184.093 181.124 184.22 181.135L188.76 181.507C188.887 181.518 189.004 181.438 189.041 181.316L192.782 169.037C192.832 168.872 192.716 168.702 192.544 168.688L188.235 168.334C188.064 168.32 187.949 168.152 187.998 167.988L197.112 137.344C197.161 137.179 197.046 137.011 196.875 136.997L183.333 135.885ZM180.937 151.512C181.155 151.35 181.449 151.574 181.351 151.828L175.703 166.305C175.661 166.413 175.554 166.482 175.439 166.477L162.34 165.974C162.085 165.964 161.983 165.638 162.188 165.486L180.937 151.512Z" fill="url(#paint2_linear_969_2727)"/>
</mask>
<g mask="url(#mask1_969_2727)">
<rect x="176.117" y="93.9119" width="42.2588" height="145.481" transform="rotate(12.1959 176.117 93.9119)" fill="#FFFCC7" fill-opacity="0.45"/>
<rect x="237.273" y="91.282" width="14.6998" height="145.481" transform="rotate(11.6621 237.273 91.282)" fill="#FFFCC7" fill-opacity="0.45"/>
<rect x="267.418" y="95.5352" width="6.25905" height="145.481" transform="rotate(11.6621 267.418 95.5352)" fill="#FFFCC7" fill-opacity="0.45"/>
</g>
<g filter="url(#filter4_d_969_2727)">
<path d="M287.397 210.536C274.701 204.118 265.165 158.531 301.168 145.861C298.275 161.167 293.339 187.88 287.397 210.536Z" fill="url(#paint3_linear_969_2727)"/>
<path d="M287.397 210.536C274.701 204.118 265.165 158.531 301.168 145.861C298.275 161.167 293.339 187.88 287.397 210.536Z" fill="black" fill-opacity="0.24"/>
<path d="M287.397 210.536C274.701 204.118 265.165 158.531 301.168 145.861C298.275 161.167 293.339 187.88 287.397 210.536Z" stroke="url(#paint4_linear_969_2727)" stroke-width="0.135467"/>
</g>
</g>
<g filter="url(#filter5_d_969_2727)">
<path d="M148.615 30.1842C153.784 28.5795 159.083 32.335 159.28 37.7443L159.285 38.0074L159.818 132.841C159.838 136.284 157.713 139.375 154.491 140.592L130.244 149.745C124.946 151.745 119.255 147.926 119.1 142.264L118.498 120.238L93.6971 129.6L104.786 151.979C106.822 156.088 105.108 161.068 100.976 163.057L77.6967 174.257C73.6281 176.214 68.7414 174.53 66.7408 170.482L24.7186 85.4559C22.5529 81.0736 24.658 75.7809 29.2417 74.0833L54.0868 64.8819L54.4635 64.752C58.3659 63.5148 62.6179 65.3398 64.3902 69.0751L76.9574 95.5628L113.919 79.1573L116.672 46.3789C116.945 43.1272 119.112 40.3433 122.197 39.2805L148.365 30.266L148.615 30.1842Z" fill="#9E00F9" stroke="white" stroke-width="8.37354"/>
<mask id="mask2_969_2727" style="mask-type:alpha" maskUnits="userSpaceOnUse" x="19" y="25" width="145" height="155">
<path d="M148.611 30.1841C153.78 28.5794 159.079 32.3348 159.276 37.7441L159.281 38.0073L159.814 132.84C159.834 136.284 157.709 139.375 154.487 140.592L130.24 149.745C124.942 151.745 119.251 147.926 119.097 142.264L118.494 120.238L93.6932 129.6L104.782 151.979C106.818 156.088 105.104 161.068 100.972 163.057L77.6928 174.256C73.6242 176.214 68.7375 174.53 66.7369 170.482L24.7147 85.4558C22.5489 81.0735 24.6541 75.7808 29.2378 74.0831L54.0829 64.8818L54.4596 64.7519C58.362 63.5147 62.614 65.3397 64.3863 69.075L76.9534 95.5627L113.915 79.1571L116.668 46.3788C116.941 43.1271 119.108 40.3431 122.193 39.2804L148.361 30.2659L148.611 30.1841Z" fill="#9E00F9" stroke="#FFF45A" stroke-width="8.37354"/>
</mask>
<g mask="url(#mask2_969_2727)">
<rect x="80.4648" y="11.6011" width="51.2019" height="176.269" transform="rotate(28.5743 80.4648 11.6011)" fill="#FFFCC7" fill-opacity="0.3"/>
<rect x="152.453" y="29.4393" width="17.8106" height="176.269" transform="rotate(28.0405 152.453 29.4393)" fill="#FFFCC7" fill-opacity="0.3"/>
<rect x="186.043" y="44.6821" width="7.58363" height="176.269" transform="rotate(28.0405 186.043 44.6821)" fill="#FFFCC7" fill-opacity="0.3"/>
</g>
</g>
<path d="M107.738 49.4573L96.5406 74.4735C96.8781 74.0734 104.852 62.8876 110.508 53.9732C114.98 44.4999 127.648 49.8931 130.119 52.1157L141.042 56.6796C139.287 55.1677 130.348 50.9463 127.246 47.3389C119.047 43.034 119.217 36.8136 121.18 33.1991L132.579 11.2407C131.776 12.2696 123.149 25.4398 119.501 31.6895C113.886 41.308 104.655 32.5476 101.924 31.9144L90.5229 25.8009C90.5229 25.8009 96.0112 30.2435 100.781 33.7296C109.11 39.8168 109.727 44.2451 107.738 49.4573Z" fill="white"/>
<path d="M299.671 323.502L272.141 343.657C272.752 343.432 288.271 336.249 299.883 330.094C310.559 322.605 320.935 336.246 322.238 340.173L331.24 351.842C330.273 349.125 323.207 339.049 322.075 333.236C315.861 323.526 319.879 316.903 324.23 314.204L350.093 297.481C348.59 298.098 331.142 307.025 323.345 311.536C311.344 318.478 306.759 303.313 304.196 300.945L295.633 287.306C295.633 287.306 298.831 295.494 301.841 302.204C307.097 313.921 305.034 319.091 299.671 323.502Z" fill="white"/>
<defs>
<filter id="filter0_d_969_2727" x="200.392" y="178.098" width="144.733" height="157.029" filterUnits="userSpaceOnUse" color-interpolation-filters="sRGB">
<feFlood flood-opacity="0" result="BackgroundImageFix"/>
<feColorMatrix in="SourceAlpha" type="matrix" values="0 0 0 0 0 0 0 0 0 0 0 0 0 0 0 0 0 0 127 0" result="hardAlpha"/>
<feOffset dx="-4.18677" dy="6.69883"/>
<feGaussianBlur stdDeviation="2.09338"/>
<feComposite in2="hardAlpha" operator="out"/>
<feColorMatrix type="matrix" values="0 0 0 0 0 0 0 0 0 0 0 0 0 0 0 0 0 0 0.5 0"/>
<feBlend mode="normal" in2="BackgroundImageFix" result="effect1_dropShadow_969_2727"/>
<feBlend mode="normal" in="SourceGraphic" in2="effect1_dropShadow_969_2727" result="shape"/>
</filter>
<filter id="filter1_d_969_2727" x="121.684" y="115.991" width="186.414" height="114.292" filterUnits="userSpaceOnUse" color-interpolation-filters="sRGB">
<feFlood flood-opacity="0" result="BackgroundImageFix"/>
<feColorMatrix in="SourceAlpha" type="matrix" values="0 0 0 0 0 0 0 0 0 0 0 0 0 0 0 0 0 0 127 0" result="hardAlpha"/>
<feOffset dx="3.34941" dy="5.86148"/>
<feGaussianBlur stdDeviation="1.67471"/>
<feComposite in2="hardAlpha" operator="out"/>
<feColorMatrix type="matrix" values="0 0 0 0 0 0 0 0 0 0 0 0 0 0 0 0 0 0 0.45 0"/>
<feBlend mode="normal" in2="BackgroundImageFix" result="effect1_dropShadow_969_2727"/>
<feBlend mode="normal" in="SourceGraphic" in2="effect1_dropShadow_969_2727" result="shape"/>
</filter>
<filter id="filter2_d_969_2727" x="120.6" y="115.995" width="181.874" height="107.243" filterUnits="userSpaceOnUse" color-interpolation-filters="sRGB">
<feFlood flood-opacity="0" result="BackgroundImageFix"/>
<feColorMatrix in="SourceAlpha" type="matrix" values="0 0 0 0 0 0 0 0 0 0 0 0 0 0 0 0 0 0 127 0" result="hardAlpha"/>
<feOffset dy="1.08373"/>
<feGaussianBlur stdDeviation="0.541866"/>
<feComposite in2="hardAlpha" operator="out"/>
<feColorMatrix type="matrix" values="0 0 0 0 0 0 0 0 0 0 0 0 0 0 0 0 0 0 0.41 0"/>
<feBlend mode="normal" in2="BackgroundImageFix" result="effect1_dropShadow_969_2727"/>
<feBlend mode="normal" in="SourceGraphic" in2="effect1_dropShadow_969_2727" result="shape"/>
</filter>
<filter id="filter3_dn_969_2727" x="120.608" y="115.991" width="181.874" height="107.244" filterUnits="userSpaceOnUse" color-interpolation-filters="sRGB">
<feFlood flood-opacity="0" result="BackgroundImageFix"/>
<feColorMatrix in="SourceAlpha" type="matrix" values="0 0 0 0 0 0 0 0 0 0 0 0 0 0 0 0 0 0 127 0" result="hardAlpha"/>
<feOffset dy="1.08373"/>
<feGaussianBlur stdDeviation="0.541866"/>
<feComposite in2="hardAlpha" operator="out"/>
<feColorMatrix type="matrix" values="0 0 0 0 0 0 0 0 0 0 0 0 0 0 0 0 0 0 0.25 0"/>
<feBlend mode="normal" in2="BackgroundImageFix" result="effect1_dropShadow_969_2727"/>
<feBlend mode="normal" in="SourceGraphic" in2="BackgroundImageFix" result="shape"/>
<feTurbulence type="fractalNoise" baseFrequency="0.3154655396938324 0.3154655396938324" stitchTiles="stitch" numOctaves="3" result="noise" seed="6754" />
<feColorMatrix in="noise" type="luminanceToAlpha" result="alphaNoise" />
<feComponentTransfer in="alphaNoise" result="coloredNoise1">
<feFuncA type="discrete" tableValues="0 0 0 0 0 0 0 0 0 0 0 0 0 0 0 0 0 1 1 1 1 1 1 1 1 1 1 1 1 1 1 1 0 0 0 0 0 0 0 0 0 0 0 0 0 0 0 0 0 0 0 0 0 0 0 0 0 0 0 0 0 0 0 0 0 0 0 0 0 0 0 0 0 0 0 0 0 0 0 0 0 0 0 0 0 0 0 0 0 0 0 0 0 0 0 0 0 0 0 0 "/>
</feComponentTransfer>
<feComposite operator="in" in2="shape" in="coloredNoise1" result="noise1Clipped" />
<feComponentTransfer in="alphaNoise" result="coloredNoise2">
<feFuncA type="discrete" tableValues="0 0 0 0 0 0 0 0 0 0 0 0 0 0 0 0 0 0 0 0 0 0 0 0 0 0 0 0 0 0 0 0 0 0 0 0 0 0 0 0 0 0 0 0 0 0 0 0 0 0 0 0 0 0 0 0 0 0 0 0 0 0 0 0 0 0 0 0 1 1 1 1 1 1 1 1 1 1 1 1 1 1 1 0 0 0 0 0 0 0 0 0 0 0 0 0 0 0 0 0 "/>
</feComponentTransfer>
<feComposite operator="in" in2="shape" in="coloredNoise2" result="noise2Clipped" />
<feFlood flood-color="rgba(255, 196, 0, 0.72)" result="color1Flood" />
<feComposite operator="in" in2="noise1Clipped" in="color1Flood" result="color1" />
<feFlood flood-color="rgba(255, 255, 255, 0.44)" result="color2Flood" />
<feComposite operator="in" in2="noise2Clipped" in="color2Flood" result="color2" />
<feMerge result="effect2_noise_969_2727">
<feMergeNode in="shape" />
<feMergeNode in="color1" />
<feMergeNode in="color2" />
</feMerge>
<feBlend mode="normal" in="effect2_noise_969_2727" in2="effect1_dropShadow_969_2727" result="effect2_noise_969_2727"/>
</filter>
<filter id="filter4_d_969_2727" x="275.457" y="145.568" width="27.3447" height="66.8816" filterUnits="userSpaceOnUse" color-interpolation-filters="sRGB">
<feFlood flood-opacity="0" result="BackgroundImageFix"/>
<feColorMatrix in="SourceAlpha" type="matrix" values="0 0 0 0 0 0 0 0 0 0 0 0 0 0 0 0 0 0 127 0" result="hardAlpha"/>
<feOffset dx="0.541866" dy="0.8128"/>
<feGaussianBlur stdDeviation="0.501226"/>
<feComposite in2="hardAlpha" operator="out"/>
<feColorMatrix type="matrix" values="0 0 0 0 0 0 0 0 0 0 0 0 0 0 0 0 0 0 0.48 0"/>
<feBlend mode="normal" in2="BackgroundImageFix" result="effect1_dropShadow_969_2727"/>
<feBlend mode="normal" in="SourceGraphic" in2="effect1_dropShadow_969_2727" result="shape"/>
</filter>
<filter id="filter5_d_969_2727" x="8.78628" y="25.62" width="157.73" height="167.037" filterUnits="userSpaceOnUse" color-interpolation-filters="sRGB">
<feFlood flood-opacity="0" result="BackgroundImageFix"/>
<feColorMatrix in="SourceAlpha" type="matrix" values="0 0 0 0 0 0 0 0 0 0 0 0 0 0 0 0 0 0 127 0" result="hardAlpha"/>
<feOffset dx="-4.18677" dy="6.69883"/>
<feGaussianBlur stdDeviation="3.34941"/>
<feComposite in2="hardAlpha" operator="out"/>
<feColorMatrix type="matrix" values="0 0 0 0 0 0 0 0 0 0 0 0 0 0 0 0 0 0 0.5 0"/>
<feBlend mode="normal" in2="BackgroundImageFix" result="effect1_dropShadow_969_2727"/>
<feBlend mode="normal" in="SourceGraphic" in2="effect1_dropShadow_969_2727" result="shape"/>
</filter>
<linearGradient id="paint0_linear_969_2727" x1="141.637" y1="161.793" x2="336.605" y2="198.735" gradientUnits="userSpaceOnUse">
<stop stop-color="#FFE030"/>
<stop offset="0.261174" stop-color="#FFFDEB"/>
<stop offset="0.360249" stop-color="#FFE610"/>
<stop offset="0.439479" stop-color="#FFF9C4"/>
<stop offset="0.614238" stop-color="#FFE514"/>
<stop offset="1" stop-color="#FFE41A"/>
</linearGradient>
<linearGradient id="paint1_linear_969_2727" x1="140.705" y1="134.226" x2="224.091" y2="226.999" gradientUnits="userSpaceOnUse">
<stop stop-color="#FFF9A1"/>
<stop offset="1" stop-color="#E9B334"/>
</linearGradient>
<linearGradient id="paint2_linear_969_2727" x1="160.921" y1="162.532" x2="336.586" y2="198.737" gradientUnits="userSpaceOnUse">
<stop stop-color="#FFEC1A"/>
<stop offset="0.380812" stop-color="#FFE60B"/>
<stop offset="1" stop-color="#FFE41A"/>
</linearGradient>
<linearGradient id="paint3_linear_969_2727" x1="274.888" y1="172.199" x2="295.052" y2="177.004" gradientUnits="userSpaceOnUse">
<stop stop-color="#D1D1D1"/>
<stop offset="0.3423" stop-color="#FAFAFA"/>
<stop offset="0.573639" stop-color="white"/>
<stop offset="1" stop-color="#666666"/>
</linearGradient>
<linearGradient id="paint4_linear_969_2727" x1="276.863" y1="165.562" x2="305.2" y2="170.913" gradientUnits="userSpaceOnUse">
<stop stop-color="white"/>
<stop offset="1" stop-color="#0B0B0B"/>
</linearGradient>
</defs>
</svg>
